<svg xmlns="http://www.w3.org/2000/svg" viewBox="0 0 64 64">
  <!-- Base dirt -->
  <rect width="64" height="64" fill="#8E5F30"/>

  <!-- Grass strip top -->
  <rect x="0"  y="0"  width="4"  height="4"  fill="#5A9226"/>
  <rect x="4"  y="0"  width="4"  height="4"  fill="#7FB238"/>
  <rect x="8"  y="0"  width="4"  height="4"  fill="#6BA82E"/>
  <rect x="12" y="0"  width="4"  height="4"  fill="#7FB238"/>
  <rect x="16" y="0"  width="4"  height="4"  fill="#5A9226"/>
  <rect x="20" y="0"  width="4"  height="4"  fill="#8CC440"/>
  <rect x="24" y="0"  width="4"  height="4"  fill="#7FB238"/>
  <rect x="28" y="0"  width="4"  height="4"  fill="#5A9226"/>
  <rect x="32" y="0"  width="4"  height="4"  fill="#8CC440"/>
  <rect x="36" y="0"  width="4"  height="4"  fill="#7FB238"/>
  <rect x="40" y="0"  width="4"  height="4"  fill="#5A9226"/>
  <rect x="44" y="0"  width="4"  height="4"  fill="#6BA82E"/>
  <rect x="48" y="0"  width="4"  height="4"  fill="#7FB238"/>
  <rect x="52" y="0"  width="4"  height="4"  fill="#8CC440"/>
  <rect x="56" y="0"  width="4"  height="4"  fill="#5A9226"/>
  <rect x="60" y="0"  width="4"  height="4"  fill="#7FB238"/>

  <rect x="0"  y="4"  width="4"  height="4"  fill="#7FB238"/>
  <rect x="4"  y="4"  width="4"  height="4"  fill="#5A9226"/>
  <rect x="8"  y="4"  width="4"  height="4"  fill="#8CC440"/>
  <rect x="12" y="4"  width="4"  height="4"  fill="#6BA82E"/>
  <rect x="16" y="4"  width="4"  height="4"  fill="#8CC440"/>
  <rect x="20" y="4"  width="4"  height="4"  fill="#5A9226"/>
  <rect x="24" y="4"  width="4"  height="4"  fill="#6BA82E"/>
  <rect x="28" y="4"  width="4"  height="4"  fill="#8CC440"/>
  <rect x="32" y="4"  width="4"  height="4"  fill="#7FB238"/>
  <rect x="36" y="4"  width="4"  height="4"  fill="#5A9226"/>
  <rect x="40" y="4"  width="4"  height="4"  fill="#8CC440"/>
  <rect x="44" y="4"  width="4"  height="4"  fill="#7FB238"/>
  <rect x="48" y="4"  width="4"  height="4"  fill="#5A9226"/>
  <rect x="52" y="4"  width="4"  height="4"  fill="#6BA82E"/>
  <rect x="56" y="4"  width="4"  height="4"  fill="#8CC440"/>
  <rect x="60" y="4"  width="4"  height="4"  fill="#5A9226"/>

  <rect x="0"  y="8"  width="4"  height="4"  fill="#6BA82E"/>
  <rect x="4"  y="8"  width="4"  height="4"  fill="#8CC440"/>
  <rect x="8"  y="8"  width="4"  height="4"  fill="#7FB238"/>
  <rect x="12" y="8"  width="4"  height="4"  fill="#5A9226"/>
  <rect x="16" y="8"  width="4"  height="4"  fill="#7FB238"/>
  <rect x="20" y="8"  width="4"  height="4"  fill="#8CC440"/>
  <rect x="24" y="8"  width="4"  height="4"  fill="#5A9226"/>
  <rect x="28" y="8"  width="4"  height="4"  fill="#7FB238"/>
  <rect x="32" y="8"  width="4"  height="4"  fill="#6BA82E"/>
  <rect x="36" y="8"  width="4"  height="4"  fill="#8CC440"/>
  <rect x="40" y="8"  width="4"  height="4"  fill="#7FB238"/>
  <rect x="44" y="8"  width="4"  height="4"  fill="#5A9226"/>
  <rect x="48" y="8"  width="4"  height="4"  fill="#8CC440"/>
  <rect x="52" y="8"  width="4"  height="4"  fill="#7FB238"/>
  <rect x="56" y="8"  width="4"  height="4"  fill="#6BA82E"/>
  <rect x="60" y="8"  width="4"  height="4"  fill="#8CC440"/>

  <!-- Grass/dirt transition row -->
  <rect x="0"  y="12" width="4"  height="4"  fill="#7A5228"/>
  <rect x="4"  y="12" width="4"  height="4"  fill="#6BA82E"/>
  <rect x="8"  y="12" width="4"  height="4"  fill="#5A9226"/>
  <rect x="12" y="12" width="4"  height="4"  fill="#7FB238"/>
  <rect x="16" y="12" width="4"  height="4"  fill="#7A5228"/>
  <rect x="20" y="12" width="4"  height="4"  fill="#6BA82E"/>
  <rect x="24" y="12" width="4"  height="4"  fill="#8CC440"/>
  <rect x="28" y="12" width="4"  height="4"  fill="#7A5228"/>
  <rect x="32" y="12" width="4"  height="4"  fill="#5A9226"/>
  <rect x="36" y="12" width="4"  height="4"  fill="#7A5228"/>
  <rect x="40" y="12" width="4"  height="4"  fill="#6BA82E"/>
  <rect x="44" y="12" width="4"  height="4"  fill="#7A5228"/>
  <rect x="48" y="12" width="4"  height="4"  fill="#7FB238"/>
  <rect x="52" y="12" width="4"  height="4"  fill="#7A5228"/>
  <rect x="56" y="12" width="4"  height="4"  fill="#5A9226"/>
  <rect x="60" y="12" width="4"  height="4"  fill="#7A5228"/>

  <!-- Dirt texture pixels -->
  <rect x="4"  y="20" width="4"  height="4"  fill="#7A5228"/>
  <rect x="20" y="24" width="4"  height="4"  fill="#7A5228"/>
  <rect x="36" y="20" width="4"  height="4"  fill="#7A5228"/>
  <rect x="52" y="24" width="4"  height="4"  fill="#7A5228"/>

  <rect x="12" y="20" width="4"  height="4"  fill="#A06832"/>
  <rect x="28" y="24" width="4"  height="4"  fill="#A06832"/>
  <rect x="44" y="20" width="4"  height="4"  fill="#A06832"/>
  <rect x="60" y="24" width="4"  height="4"  fill="#A06832"/>

  <rect x="0"  y="32" width="4"  height="4"  fill="#7A5228"/>
  <rect x="16" y="36" width="4"  height="4"  fill="#7A5228"/>
  <rect x="32" y="32" width="4"  height="4"  fill="#7A5228"/>
  <rect x="48" y="36" width="4"  height="4"  fill="#7A5228"/>

  <rect x="8"  y="32" width="4"  height="4"  fill="#A06832"/>
  <rect x="24" y="36" width="4"  height="4"  fill="#A06832"/>
  <rect x="40" y="32" width="4"  height="4"  fill="#A06832"/>
  <rect x="56" y="36" width="4"  height="4"  fill="#A06832"/>

  <rect x="4"  y="44" width="4"  height="4"  fill="#7A5228"/>
  <rect x="20" y="48" width="4"  height="4"  fill="#7A5228"/>
  <rect x="36" y="44" width="4"  height="4"  fill="#7A5228"/>
  <rect x="52" y="48" width="4"  height="4"  fill="#7A5228"/>

  <rect x="12" y="44" width="4"  height="4"  fill="#A06832"/>
  <rect x="28" y="52" width="4"  height="4"  fill="#A06832"/>
  <rect x="44" y="44" width="4"  height="4"  fill="#A06832"/>
  <rect x="60" y="52" width="4"  height="4"  fill="#A06832"/>

  <rect x="0"  y="56" width="4"  height="4"  fill="#A06832"/>
  <rect x="16" y="56" width="4"  height="4"  fill="#7A5228"/>
  <rect x="32" y="60" width="4"  height="4"  fill="#A06832"/>
  <rect x="48" y="56" width="4"  height="4"  fill="#7A5228"/>
</svg>
