<svg xmlns="http://www.w3.org/2000/svg" viewBox="0 0 597.6 604.64"><defs><style>.cls-1{fill:#38BDF8;}</style></defs><title>NMJ_IsologoRecurso 5</title><g id="Capa_2" data-name="Capa 2"><g id="Capa_1-2" data-name="Capa 1"><path class="cls-1" d="M310.5.34c39.9,2.93,89.21-5,138.12,4.47C532.69,21,596.8,97.26,597.14,182.52c.21,53.42-1.28,106.88.35,160.24,1.93,63.26-22.31,113.85-69.78,153.73-46.59,39.13-99.66,68.83-151.39,100.39-4.35,2.65-12.38,6.65-17.41,7.48-7.4,1.22-12.2-1.47-16.2-9.37-3.7-7.31-4.17-14.81,2.42-20.14s14.51-9.91,21.5-14.38c35.19-22.55,70.66-44.67,105.8-67.31,58.69-37.8,92.42-88.45,87.9-161.65-2.77-44.87-.3-90-.6-135.09-.59-89.92-51.14-150.37-141.12-156C333.2,35.07,247,32.34,161.52,42.79,92,51.28,40.31,108.31,38.23,179.15c-1.72,58.6-2.76,117.41.16,175.92C41.91,425.69,98,489.46,176.68,490.48c49.22.64,98.45.21,147.68.3,7.32,0,14.69.37,21.94.66,11.4.46,20.06,3.49,19.87,20.53-.19,15.85-10.48,18.91-22.15,19-44,.29-88-1-131.95.81-53.15,2.18-101.8-8.66-143.28-43.11C26.56,453.57,1.4,409.27,1,353.14.66,298.67,3.72,244,.29,189.78-5.24,102.05,68.38,1.63,188.25.4,226,0,263.66.34,310.5.34Z"/><path class="cls-1" d="M152.13,304.79c0-19.85-.75-39.74.15-59.55,2-44.84,33.09-84.64,75.24-98.05a61.3,61.3,0,0,1,24.74-2.63c15,1.46,20.63,8,11.93,22.63a310.7,310.7,0,0,0-26,56.65c-5.68,16.3-4.18,28,15.87,26.13,22-2.09,22.73,9.6,22.77,26.31.07,28.91,0,57.61-.06,87.76,0,17-5.68,25.16-23.55,24.74-26.1-.61-52.25-.58-78.35.33-18.31.65-23.65-8-22.93-24.77C152.77,344.52,152.12,324.64,152.13,304.79Z"/><path class="cls-1" d="M310.8,304.79c0-19.85-.75-39.74.16-59.55,2-44.84,33.08-84.64,75.24-98.05a61.24,61.24,0,0,1,24.73-2.63c15,1.46,20.64,8,11.94,22.63a310.74,310.74,0,0,0-26,56.65c-5.68,16.3-4.18,28,15.87,26.13,22-2.09,22.73,9.6,22.77,26.31.07,29.87.07,57.61-.06,87.76-.07,17-5.68,25.16-23.54,24.74-26.11-.61-52.26-.58-78.35.33-18.31.65-23.65-8-22.93-24.77C311.45,344.52,310.8,324.64,310.8,304.79Z"/></g></g></svg>