<svg xmlns="http://www.w3.org/2000/svg" viewBox="0 0 532.9 533.2"><defs><style>.cls-1{fill:#211915;}</style></defs><title>NMJ_LogoV2Recurso 11</title><g id="Capa_2" data-name="Capa 2"><g id="Capa_1-2" data-name="Capa 1"><path class="cls-1" d="M385.41.17c20,1.47,44.82-2.5,69.4,2.25,42.23,8.15,74.45,46.45,74.62,89.29.1,26.83-.65,53.69.17,80.51,1,31.78-11.21,57.2-35.06,77.23-23.41,19.67-50.07,34.59-76.06,50.44-2.19,1.34-6.22,3.35-8.75,3.76-3.72.61-6.13-.73-8.14-4.71-1.86-3.67-2.1-7.44,1.21-10.11a122.53,122.53,0,0,1,10.81-7.23c17.68-11.33,35.5-22.44,53.16-33.82,29.49-19,46.43-44.44,44.16-81.22-1.39-22.54-.15-45.24-.3-67.87-.3-45.18-25.7-75.55-70.9-78.38-42.92-2.69-86.22-4.06-129.18,1.19-34.92,4.27-60.9,32.92-61.94,68.51-.87,29.45-1.39,59,.08,88.39,1.77,35.48,29.94,67.52,69.48,68,24.73.32,49.47.1,74.2.15,3.68,0,7.38.18,11,.33,5.73.23,10.08,1.75,10,10.31-.1,8-5.27,9.5-11.13,9.54-22.1.15-44.23-.49-66.3.41-26.7,1.09-51.15-4.35-72-21.66-21.21-17.63-33.86-39.89-34-68.09-.18-27.36,1.36-54.82-.36-82.08C226.76,51.27,263.75.82,324,.2,342.92,0,361.87.17,385.41.17Z" transform="translate(0)"/><path class="cls-1" d="M305.83,153.14c0-10-.37-20,.08-29.92A55,55,0,0,1,343.72,74a30.71,30.71,0,0,1,12.42-1.32c7.56.74,10.37,4,6,11.37a155.75,155.75,0,0,0-13.07,28.47c-2.86,8.18-2.11,14.08,8,13.12,11-1,11.42,4.83,11.44,13.22,0,14.53,0,28.95,0,44.1,0,8.52-2.86,12.64-11.83,12.43-13.12-.31-26.26-.29-39.37.17-9.2.32-11.88-4-11.52-12.45C306.16,173.1,305.83,163.11,305.83,153.14Z" transform="translate(0)"/><path class="cls-1" d="M385.56,153.14c0-10-.38-20,.08-29.92A55,55,0,0,1,423.44,74a30.76,30.76,0,0,1,12.43-1.32c7.55.74,10.37,4,6,11.37a156.42,156.42,0,0,0-13.07,28.47c-2.86,8.18-2.1,14.08,8,13.12,11-1,11.42,4.83,11.44,13.22,0,15,0,28.95,0,44.1,0,8.52-2.85,12.64-11.83,12.43-13.11-.31-26.25-.29-39.36.17-9.2.32-11.89-4-11.52-12.45C385.88,173.1,385.56,163.11,385.56,153.14Z" transform="translate(0)"/><path class="cls-1" d="M13.17,390.53V297.39H31l55,67.06H77.31V297.39H98.6v93.14H80.77l-55-67.06h8.65v67.06Z" transform="translate(0)"/><path class="cls-1" d="M146.5,391.6a41.71,41.71,0,0,1-20.16-4.79,37.22,37.22,0,0,1-13.91-51.16,35.48,35.48,0,0,1,13.91-13,42.25,42.25,0,0,1,20.16-4.72,43,43,0,0,1,20.36,4.72,35.38,35.38,0,0,1,14,13,36.27,36.27,0,0,1-14,51.16A42.4,42.4,0,0,1,146.5,391.6Zm0-17a18.56,18.56,0,0,0,9.38-2.32,17.09,17.09,0,0,0,6.52-6.86,21.92,21.92,0,0,0,2.46-10.64,21.5,21.5,0,0,0-2.46-10.65,17.43,17.43,0,0,0-6.52-6.72,18.28,18.28,0,0,0-9.25-2.32,18.59,18.59,0,0,0-9.31,2.32,17.25,17.25,0,0,0-6.59,6.72,21.5,21.5,0,0,0-2.46,10.65,21.92,21.92,0,0,0,2.46,10.64,16.92,16.92,0,0,0,6.59,6.86A18.34,18.34,0,0,0,146.5,374.56Z" transform="translate(0)"/><path class="cls-1" d="M194.53,390.53V297.39h17.83L252,363.12h-9.44l38.85-65.73h18v93.14H279.29L279,328.39h4l-31.4,52.16H242l-31.81-52.16h4.4v62.14Z" transform="translate(0)"/><path class="cls-1" d="M349,391.6a45.71,45.71,0,0,1-21.42-4.79,34.87,34.87,0,0,1-19.29-32.07,37.23,37.23,0,0,1,4.85-19,34.21,34.21,0,0,1,13.58-13.11,40.6,40.6,0,0,1,19.62-4.72,39.47,39.47,0,0,1,19,4.53,34,34,0,0,1,13.38,12.77q4.92,8.25,4.92,19.82c0,.8-.05,1.71-.13,2.73s-.18,2-.27,2.86H325.06v-12.1H372.3l-8.12,3.59a18.91,18.91,0,0,0-2.13-9.72,16.57,16.57,0,0,0-6.25-6.45,18.18,18.18,0,0,0-9.31-2.33,18.52,18.52,0,0,0-9.38,2.33,16.19,16.19,0,0,0-6.32,6.52,20.57,20.57,0,0,0-2.27,9.91v3.2a19.69,19.69,0,0,0,2.66,10.38,17.73,17.73,0,0,0,7.32,6.72A24.81,24.81,0,0,0,349.68,375a26.39,26.39,0,0,0,9.91-1.73,24.46,24.46,0,0,0,7.92-5.19l11,12a32,32,0,0,1-12.37,8.58A45.72,45.72,0,0,1,349,391.6Z" transform="translate(0)"/><path class="cls-1" d="M30.34,507.92A42.24,42.24,0,0,1,13,504.39,32.62,32.62,0,0,1,0,494.21L12,480a27.4,27.4,0,0,0,8,7.58,18,18,0,0,0,9.25,2.53q13.17,0,13.18-15.3V430.48H9.84v-17.3H64v60.41q0,17.3-8.58,25.81T30.34,507.92Z" transform="translate(0)"/><path class="cls-1" d="M107.24,507.39a35.3,35.3,0,0,1-16-3.46A24.48,24.48,0,0,1,80.5,493.28q-3.87-7.18-3.86-18.09V434.74H97.4V472q0,9.06,3.79,13.24t10.71,4.19a16.89,16.89,0,0,0,8.52-2.13,15,15,0,0,0,5.92-6.38,23.16,23.16,0,0,0,2.19-10.65V434.74h20.63v71.58h-19.7V486.5l3.6,5.85a25.39,25.39,0,0,1-10.65,11.24A31,31,0,0,1,107.24,507.39Z" transform="translate(0)"/><path class="cls-1" d="M157,506.32V493.68l42.18-49.9,3.59,6.92h-45v-16h61.74v12.64l-42.18,49.76-3.86-6.79h47.23v16Z" transform="translate(0)"/><path class="cls-1" d="M256.8,502.86A37.36,37.36,0,0,1,239,498.54a33.17,33.17,0,0,1-12.9-12.11,37.08,37.08,0,0,1,0-36.46,32.71,32.71,0,0,1,12.9-12,37.79,37.79,0,0,1,17.83-4.26A33.86,33.86,0,0,1,273,437.33a25.17,25.17,0,0,1,10.71,11.38q3.85,7.71,3.86,19.56t-3.86,19.49A25.68,25.68,0,0,1,273,499.14,33.41,33.41,0,0,1,256.8,502.86Zm3.33,30.34a76.49,76.49,0,0,1-19.49-2.46A42.32,42.32,0,0,1,225,523.35l8.25-15a34.16,34.16,0,0,0,11.51,6.05,45.13,45.13,0,0,0,13.91,2.2q10.9,0,16-4.93T279.69,497V486.36L281,468.27l-.4-18.23v-15.3h19.69v59.61q0,19.81-10.37,29.34T260.13,533.2Zm.93-47.24a20.38,20.38,0,0,0,9.72-2.26,16.84,16.84,0,0,0,6.65-6.25,19,19,0,0,0,0-18.43,16.12,16.12,0,0,0-6.65-6.06,23.16,23.16,0,0,0-19.36,0,16.37,16.37,0,0,0-6.79,6.06,17.39,17.39,0,0,0,6.79,24.68A20.43,20.43,0,0,0,261.06,486Z" transform="translate(0)"/><path class="cls-1" d="M343.16,507.39a35.34,35.34,0,0,1-16-3.46,24.51,24.51,0,0,1-10.77-10.65q-3.87-7.18-3.86-18.09V434.74h20.75V472q0,9.06,3.8,13.24t10.71,4.19a16.83,16.83,0,0,0,8.51-2.13,14.93,14.93,0,0,0,5.92-6.38,23,23,0,0,0,2.2-10.65V434.74h20.62v71.58H365.38V486.5l3.59,5.85a25.31,25.31,0,0,1-10.64,11.24A31.05,31.05,0,0,1,343.16,507.39Z" transform="translate(0)"/><path class="cls-1" d="M433.24,507.39a45.71,45.71,0,0,1-21.42-4.79,34.87,34.87,0,0,1-19.29-32.07,37.23,37.23,0,0,1,4.85-19A34.09,34.09,0,0,1,411,438.4a40.51,40.51,0,0,1,19.63-4.73,39.47,39.47,0,0,1,19,4.53A33.92,33.92,0,0,1,462.91,451q4.92,8.25,4.93,19.82c0,.8,0,1.71-.14,2.73s-.17,2-.26,2.86H409.29v-12.1h47.24l-8.12,3.59a18.91,18.91,0,0,0-2.13-9.72A16.57,16.57,0,0,0,440,451.7a18.19,18.19,0,0,0-9.32-2.33,18.54,18.54,0,0,0-9.38,2.33,16.32,16.32,0,0,0-6.32,6.52,20.57,20.57,0,0,0-2.26,9.91v3.2a19.69,19.69,0,0,0,2.66,10.38,17.61,17.61,0,0,0,7.32,6.72,24.78,24.78,0,0,0,11.18,2.32,26.39,26.39,0,0,0,9.91-1.73,24.46,24.46,0,0,0,7.92-5.19l11,12a32.08,32.08,0,0,1-12.37,8.58A45.76,45.76,0,0,1,433.24,507.39Z" transform="translate(0)"/><path class="cls-1" d="M499.11,507.39a69.22,69.22,0,0,1-17.57-2.2,45.42,45.42,0,0,1-13.44-5.52l6.79-14.77a52.38,52.38,0,0,0,11.77,4.86,48.09,48.09,0,0,0,13.24,1.93c4.79,0,8.19-.58,10.18-1.73a5.32,5.32,0,0,0,3-4.79,4.09,4.09,0,0,0-2.33-3.8,20.53,20.53,0,0,0-6.12-1.93q-3.79-.66-8.45-1.33a81.86,81.86,0,0,1-9.25-1.86,36,36,0,0,1-8.51-3.39,16.7,16.7,0,0,1-6.26-6.06,19.12,19.12,0,0,1-2.33-10,19.4,19.4,0,0,1,4-12,25.88,25.88,0,0,1,11.31-8.18,47.73,47.73,0,0,1,17.7-2.93,69.65,69.65,0,0,1,15,1.66,46.28,46.28,0,0,1,12.71,4.6l-7,14.76a37.07,37.07,0,0,0-10.32-4.12,45.09,45.09,0,0,0-10-1.2q-7.19,0-10.38,1.87T489.53,456a4.42,4.42,0,0,0,2.39,4.05,18.77,18.77,0,0,0,6.25,2.07c2.58.44,5.41.88,8.52,1.33a79.38,79.38,0,0,1,9.18,1.86,36.43,36.43,0,0,1,8.45,3.39,16.75,16.75,0,0,1,6.25,6.06,19,19,0,0,1,2.33,10,18.44,18.44,0,0,1-4,11.64,26.17,26.17,0,0,1-11.51,8Q509.89,507.39,499.11,507.39Z" transform="translate(0)"/></g></g></svg>