<svg xmlns="http://www.w3.org/2000/svg" viewBox="0 0 889.49 319.15"><defs><style>.cls-1{fill:#211915;}</style></defs><title>NMJ_LogoRecurso 4</title><g id="Capa_2" data-name="Capa 2"><g id="Capa_1-2" data-name="Capa 1"><path class="cls-1" d="M163.89.18C185,1.73,211-2.45,236.8,2.54c44.37,8.56,78.22,48.8,78.39,93.8.12,28.2-.67,56.41.19,84.58,1,33.4-11.77,60.1-36.83,81.15-24.6,20.65-52.61,36.33-79.91,53-2.3,1.4-6.54,3.51-9.19,3.94-3.91.65-6.44-.77-8.55-4.94-2-3.86-2.21-7.82,1.27-10.63a127.4,127.4,0,0,1,11.35-7.59c18.58-11.9,37.3-23.58,55.85-35.53,31-19.95,48.78-46.69,46.39-85.33-1.46-23.68-.15-47.53-.31-71.3-.31-47.46-27-79.37-74.49-82.35-45.08-2.82-90.58-4.26-135.7,1.26-36.69,4.48-64,34.58-65.08,72-.91,30.94-1.46,62,.08,92.86,1.86,37.28,31.46,70.94,73,71.48,26,.33,52,.1,78,.16,3.87,0,7.75.19,11.58.34,6,.24,10.59,1.85,10.49,10.84-.1,8.37-5.53,10-11.69,10-23.22.15-46.47-.52-69.65.43-28.06,1.14-53.74-4.57-75.63-22.76C14,239.41.74,216,.54,186.4.35,157.65,2,128.81.15,100.18-2.77,53.87,36.09.86,99.36.21,119.26,0,139.17.18,163.89.18Z"/><path class="cls-1" d="M80.3,160.88c0-10.48-.4-21,.08-31.43A57.79,57.79,0,0,1,120.1,77.69a32.56,32.56,0,0,1,13.05-1.39c7.94.78,10.89,4.22,6.3,12a163.81,163.81,0,0,0-13.73,29.9c-3,8.6-2.21,14.8,8.37,13.79,11.59-1.1,12,5.07,12,13.89,0,15.26,0,30.41,0,46.33,0,8.94-3,13.28-12.43,13.05-13.78-.32-27.58-.3-41.36.18-9.66.34-12.48-4.21-12.1-13.08C80.64,181.85,80.3,171.36,80.3,160.88Z"/><path class="cls-1" d="M164.05,160.88c0-10.48-.39-21,.09-31.43a57.78,57.78,0,0,1,39.71-51.76,32.61,32.61,0,0,1,13.06-1.39c7.93.78,10.89,4.22,6.3,12a163.19,163.19,0,0,0-13.74,29.9c-3,8.6-2.21,14.8,8.38,13.79,11.59-1.1,12,5.07,12,13.89,0,15.77,0,30.41,0,46.33,0,8.94-3,13.28-12.42,13.05-13.78-.32-27.59-.3-41.36.18-9.67.34-12.48-4.21-12.1-13.08C164.39,181.85,164.05,171.36,164.05,160.88Z"/><path class="cls-1" d="M369.76,165.8V72.66h17.83l55,67.06H433.9V72.66h21.29V165.8H437.36l-55-67.06h8.65V165.8Z"/><path class="cls-1" d="M503.09,166.86a41.6,41.6,0,0,1-20.16-4.79A37.22,37.22,0,0,1,469,110.91a35.53,35.53,0,0,1,13.91-13,42.13,42.13,0,0,1,20.16-4.72,42.83,42.83,0,0,1,20.36,4.72,35.43,35.43,0,0,1,14,13,36,36,0,0,1,5.05,19.1,35.07,35.07,0,0,1-19,32.06A42.28,42.28,0,0,1,503.09,166.86Zm0-17a18.47,18.47,0,0,0,9.38-2.33,17.06,17.06,0,0,0,6.52-6.85A21.92,21.92,0,0,0,521.45,130,21.5,21.5,0,0,0,519,119.36a17.29,17.29,0,0,0-6.52-6.72,18.29,18.29,0,0,0-9.25-2.33,18.6,18.6,0,0,0-9.31,2.33,17.12,17.12,0,0,0-6.59,6.72A21.5,21.5,0,0,0,484.86,130a21.92,21.92,0,0,0,2.46,10.64,16.89,16.89,0,0,0,6.59,6.85A18.24,18.24,0,0,0,503.09,149.83Z"/><path class="cls-1" d="M551.12,165.8V72.66H569l39.65,65.73h-9.44L638,72.66h18V165.8H635.88l-.26-62.14h4l-31.4,52.16h-9.59l-31.8-52.16h4.39V165.8Z"/><path class="cls-1" d="M705.6,166.86q-12.24,0-21.42-4.79A35.41,35.41,0,0,1,669.94,149a35.8,35.8,0,0,1-5.05-19,37.23,37.23,0,0,1,4.85-19,34.14,34.14,0,0,1,13.58-13.11,40.49,40.49,0,0,1,19.62-4.72,39.58,39.58,0,0,1,19,4.52,34,34,0,0,1,13.38,12.78q4.92,8.25,4.92,19.82c0,.8-.05,1.71-.13,2.73s-.18,2-.27,2.86H681.65V123.75h47.24l-8.12,3.59a18.9,18.9,0,0,0-2.13-9.71,16.5,16.5,0,0,0-6.25-6.45,18.18,18.18,0,0,0-9.31-2.33,18.58,18.58,0,0,0-9.39,2.33,16.26,16.26,0,0,0-6.32,6.52,20.54,20.54,0,0,0-2.26,9.91v3.19a19.64,19.64,0,0,0,2.66,10.38,17.6,17.6,0,0,0,7.32,6.72,24.67,24.67,0,0,0,11.18,2.33,26.39,26.39,0,0,0,9.91-1.73,24.46,24.46,0,0,0,7.92-5.19l11,12a32.22,32.22,0,0,1-12.37,8.58A45.73,45.73,0,0,1,705.6,166.86Z"/><path class="cls-1" d="M386.93,283.19a42.24,42.24,0,0,1-17.37-3.53,32.62,32.62,0,0,1-13-10.18l12-14.24a27.44,27.44,0,0,0,8.05,7.59,18.11,18.11,0,0,0,9.25,2.53q13.17,0,13.17-15.31v-44.3h-32.6v-17.3h54.16v60.41q0,17.29-8.58,25.81T386.93,283.19Z"/><path class="cls-1" d="M463.83,282.65a35.17,35.17,0,0,1-16-3.46,24.4,24.4,0,0,1-10.78-10.64q-3.87-7.19-3.86-18.1V210H454v37.26q0,9,3.79,13.24t10.71,4.19a16.89,16.89,0,0,0,8.52-2.13,15.13,15.13,0,0,0,5.92-6.39,23.08,23.08,0,0,0,2.19-10.64V210h20.63v71.59h-19.7V261.76l3.6,5.86A25.44,25.44,0,0,1,479,278.86,31,31,0,0,1,463.83,282.65Z"/><path class="cls-1" d="M513.6,281.59V269l42.18-49.9,3.59,6.92h-45V210h61.74v12.64L534,272.41l-3.86-6.79h47.23v16Z"/><path class="cls-1" d="M613.39,278.13a37.36,37.36,0,0,1-17.83-4.32,33.25,33.25,0,0,1-12.9-12.11,37.08,37.08,0,0,1,0-36.46,32.71,32.71,0,0,1,12.9-12,37.79,37.79,0,0,1,17.83-4.26,33.86,33.86,0,0,1,16.17,3.66A25.19,25.19,0,0,1,640.27,224q3.86,7.72,3.86,19.56T640.27,263a25.6,25.6,0,0,1-10.71,11.37A33.3,33.3,0,0,1,613.39,278.13Zm3.33,30.34A76.49,76.49,0,0,1,597.23,306a42.48,42.48,0,0,1-15.64-7.39l8.25-15a34.16,34.16,0,0,0,11.51,6.05,45.43,45.43,0,0,0,13.91,2.2q10.9,0,16-4.93t5.06-14.63V261.63l1.33-18.1-.4-18.23V210H656.9v59.61q0,19.83-10.37,29.34T616.72,308.47Zm.93-47.24a20.41,20.41,0,0,0,9.72-2.26,16.84,16.84,0,0,0,6.65-6.25,19,19,0,0,0,0-18.43,16,16,0,0,0-6.65-6.06,23.08,23.08,0,0,0-19.37,0,16.34,16.34,0,0,0-6.78,6.06A17.4,17.4,0,0,0,608,259,20.5,20.5,0,0,0,617.65,261.23Z"/><path class="cls-1" d="M699.75,282.65a35.21,35.21,0,0,1-16-3.46A24.51,24.51,0,0,1,673,268.55q-3.86-7.19-3.85-18.1V210H689.9v37.26q0,9,3.8,13.24t10.71,4.19a16.83,16.83,0,0,0,8.51-2.13,15,15,0,0,0,5.92-6.39,23,23,0,0,0,2.2-10.64V210h20.62v71.59H722V261.76l3.59,5.86a25.36,25.36,0,0,1-10.64,11.24A31,31,0,0,1,699.75,282.65Z"/><path class="cls-1" d="M789.83,282.65q-12.24,0-21.42-4.79a35.41,35.41,0,0,1-14.24-13.1,35.8,35.8,0,0,1-5.06-19,37.24,37.24,0,0,1,4.86-19,34.18,34.18,0,0,1,13.57-13.11,40.53,40.53,0,0,1,19.63-4.72,39.58,39.58,0,0,1,19,4.52,34,34,0,0,1,13.37,12.78q4.92,8.25,4.93,19.82c0,.8,0,1.71-.14,2.73s-.18,2-.26,2.86H765.88V239.54h47.24L805,243.13a18.9,18.9,0,0,0-2.13-9.71,16.5,16.5,0,0,0-6.25-6.45,18.19,18.19,0,0,0-9.32-2.33,18.54,18.54,0,0,0-9.38,2.33,16.26,16.26,0,0,0-6.32,6.52,20.54,20.54,0,0,0-2.26,9.91v3.19A19.64,19.64,0,0,0,772,257a17.48,17.48,0,0,0,7.32,6.72A24.64,24.64,0,0,0,790.5,266a26.39,26.39,0,0,0,9.91-1.73,24.46,24.46,0,0,0,7.92-5.19l11,12A32.3,32.3,0,0,1,807,279.66,45.73,45.73,0,0,1,789.83,282.65Z"/><path class="cls-1" d="M855.7,282.65a69.22,69.22,0,0,1-17.57-2.19,46,46,0,0,1-13.44-5.52l6.79-14.77A51.91,51.91,0,0,0,843.25,265,47.72,47.72,0,0,0,856.49,267c4.79,0,8.19-.57,10.18-1.73a5.31,5.31,0,0,0,3-4.79,4.08,4.08,0,0,0-2.33-3.79,20.53,20.53,0,0,0-6.12-1.93q-3.79-.66-8.45-1.33a81.86,81.86,0,0,1-9.25-1.86,35.86,35.86,0,0,1-8.52-3.4,16.72,16.72,0,0,1-6.25-6.05,19.12,19.12,0,0,1-2.33-10,19.38,19.38,0,0,1,4-12,25.88,25.88,0,0,1,11.31-8.18,47.73,47.73,0,0,1,17.7-2.93,69,69,0,0,1,15,1.66,46.29,46.29,0,0,1,12.71,4.59L880.05,230a37.07,37.07,0,0,0-10.32-4.12,45.09,45.09,0,0,0-10-1.2q-7.19,0-10.38,1.86c-2.13,1.25-3.19,2.84-3.19,4.79a4.43,4.43,0,0,0,2.39,4.06,18.77,18.77,0,0,0,6.25,2.06c2.58.45,5.41.89,8.52,1.33a81.58,81.58,0,0,1,9.18,1.87,36.43,36.43,0,0,1,8.45,3.39,16.65,16.65,0,0,1,6.25,6.05,19.05,19.05,0,0,1,2.33,10,18.47,18.47,0,0,1-4,11.65A26.25,26.25,0,0,1,874,279.73Q866.48,282.65,855.7,282.65Z"/></g></g></svg>